G04 ===== Begin FILE IDENTIFICATION =====*
G04 File Format:  Gerber RS274X*
G04 ===== End FILE IDENTIFICATION =====*
%FSLAX24Y24*%
%MOIN*%
%SFA1.0000B1.0000*%
%OFA0.0B0.0*%
%ADD10C,0.000025*%
%LNcond*%
%IPPOS*%
%LPD*%
G75*
G36*
G01X-7294Y-1895D02*
G01Y-1679D01*
G01X-11231D01*
G01Y-2500D01*
G01X-7294D01*
G01Y-2284D01*
G01X-7049D01*
G01Y-1895D01*
G01X-7294D01*
G37*
G36*
G01X-6809Y-2284D02*
G01X-6564D01*
G01Y-2356D01*
G01X-6047D01*
G01Y-2250D01*
G01X-5920D01*
G01Y-2497D01*
G01X-5779D01*
G01Y-2674D01*
G01X-5582D01*
G01Y-2497D01*
G01X-5441D01*
G01Y-2250D01*
G01X-5314D01*
G01Y-2284D01*
G01X-5069D01*
G01Y-1895D01*
G01X-5314D01*
G01Y-1940D01*
G01X-5681D01*
G01Y-1929D01*
G01X-6047D01*
G01Y-1823D01*
G01X-6564D01*
G01Y-1895D01*
G01X-6809D01*
G01Y-2284D01*
G37*
G36*
G01X-5582Y-2966D02*
G01Y-2789D01*
G01X-5779D01*
G01Y-2966D01*
G01X-5846D01*
G01Y-6903D01*
G01X-5856D01*
G01Y-7078D01*
G01X-5506D01*
G01Y-6903D01*
G01X-5515D01*
G01Y-2966D01*
G01X-5582D01*
G37*
G36*
G01X-4829Y-2284D02*
G01X-4584D01*
G01Y-2318D01*
G01X-3086D01*
G01Y-2162D01*
G01X-3047D01*
G01Y-2170D01*
G01X-2965D01*
G01Y-3185D01*
G01X-3006D01*
G01Y-3435D01*
G01X-2606D01*
G01Y-3185D01*
G01X-2647D01*
G01Y-2170D01*
G01X-2526D01*
G01Y-2236D01*
G01X-1938D01*
G01Y-2180D01*
G01X-1757D01*
G01Y-1999D01*
G01X-1737D01*
G01Y-1379D01*
G01X-1739D01*
G01Y-1163D01*
G01X-1956D01*
G01Y-1379D01*
G01X-1957D01*
G01Y-1943D01*
G01X-2401D01*
G01Y-819D01*
G01X-2606D01*
G01Y-569D01*
G01X-3006D01*
G01Y-819D01*
G01X-3211D01*
G01Y-1861D01*
G01X-4584D01*
G01Y-1895D01*
G01X-4829D01*
G01Y-2284D01*
G37*
G36*
G01X-3120Y-5266D02*
G01X-3056D01*
G01Y-5667D01*
G01X-2556D01*
G01Y-5266D01*
G01X-2492D01*
G01Y-3935D01*
G01X-2606D01*
G01Y-3685D01*
G01X-3006D01*
G01Y-3935D01*
G01X-3120D01*
G01Y-5266D01*
G37*
G36*
G01X-3118Y-7618D02*
G01X-2981D01*
G01Y-7793D01*
G01X-2631D01*
G01Y-7618D01*
G01X-2494D01*
G01Y-6368D01*
G01X-2556D01*
G01Y-5966D01*
G01X-3056D01*
G01Y-6368D01*
G01X-3118D01*
G01Y-7618D01*
G37*
G36*
G01X-3056Y280D02*
G01X-2955D01*
G01Y-69D01*
G01X-3006D01*
G01Y-319D01*
G01X-2606D01*
G01Y-69D01*
G01X-2657D01*
G01Y280D01*
G01X-2556D01*
G01Y681D01*
G01X-3056D01*
G01Y280D01*
G37*
G36*
G01X-1195Y2978D02*
G01Y3339D01*
G01X-1243D01*
G01Y3699D01*
G01X-1104D01*
G01Y7636D01*
G01X-1522D01*
G01Y3699D01*
G01X-1431D01*
G01Y3585D01*
G01X-2652D01*
G01Y3493D01*
G01X-2960D01*
G01Y3185D01*
G01X-2976D01*
G01Y1382D01*
G01X-3056D01*
G01Y980D01*
G01X-2556D01*
G01Y1382D01*
G01X-2636D01*
G01Y3093D01*
G01X-1431D01*
G01Y2978D01*
G01X-1563D01*
G01Y2577D01*
G01X-1063D01*
G01Y2978D01*
G01X-1195D01*
G37*
G36*
G01X-1997Y-434D02*
G01X-1956D01*
G01Y-651D01*
G01X-1739D01*
G01Y-434D01*
G01X-1697D01*
G01Y-164D01*
G01X-1997D01*
G01Y-434D01*
G37*
G36*
G01X-1619Y1476D02*
G01X-1513D01*
G01Y1226D01*
G01X-1113D01*
G01Y1476D01*
G01X-1007D01*
G01Y1876D01*
G01X-1063D01*
G01Y2277D01*
G01X-1563D01*
G01Y1876D01*
G01X-1619D01*
G01Y1476D01*
G37*
G36*
G01X-1576Y-122D02*
G01X-1555D01*
G01Y-434D01*
G01X-1443D01*
G01Y-651D01*
G01X-1227D01*
G01Y-434D01*
G01X-1115D01*
G01Y-122D01*
G01X-1094D01*
G01Y-103D01*
G01X-664D01*
G01Y-406D01*
G01X-700D01*
G01Y-807D01*
G01X-200D01*
G01Y-406D01*
G01X-237D01*
G01Y-107D01*
G01X55D01*
G01Y-76D01*
G01X300D01*
G01Y314D01*
G01X55D01*
G01Y345D01*
G01X-321D01*
G01Y258D01*
G01X-450D01*
G01Y228D01*
G01X-579D01*
G01Y340D01*
G01X-1094D01*
G01Y359D01*
G01X-1170D01*
G01Y726D01*
G01X-1113D01*
G01Y976D01*
G01X-1513D01*
G01Y726D01*
G01X-1456D01*
G01Y359D01*
G01X-1576D01*
G01Y119D01*
G01Y-122D01*
G37*
G36*
G01X-1561Y-1379D02*
G01X-1544D01*
G01Y-1499D01*
G01X-1569D01*
G01Y-1674D01*
G01X-1219D01*
G01Y-1499D01*
G01X-1244D01*
G01Y-1379D01*
G01X-1227D01*
G01Y-1163D01*
G01X-1561D01*
G01Y-1379D01*
G37*
G36*
G01X-752Y-5445D02*
G01X-575D01*
G01Y-5570D01*
G01X-325D01*
G01Y-5445D01*
G01X-149D01*
G01Y-1508D01*
G01X-200D01*
G01Y-1106D01*
G01X-700D01*
G01Y-1508D01*
G01X-752D01*
G01Y-5445D01*
G37*
G36*
G01X785Y289D02*
G01Y314D01*
G01X540D01*
G01Y-76D01*
G01X785D01*
G01Y-52D01*
G01X1044D01*
G01Y-281D01*
G01X1113D01*
G01Y-458D01*
G01X1310D01*
G01Y-281D01*
G01X1380D01*
G01Y-98D01*
G01X5312D01*
G01Y335D01*
G01X1375D01*
G01Y255D01*
G01X1212D01*
G01Y219D01*
G01X1048D01*
G01Y289D01*
G01X785D01*
G37*
G36*
G01X849Y-4686D02*
G01X1087D01*
G01Y-4811D01*
G01X1337D01*
G01Y-4686D01*
G01X1575D01*
G01Y-749D01*
G01X1310D01*
G01Y-572D01*
G01X1113D01*
G01Y-749D01*
G01X849D01*
G01Y-4686D01*
G37*
M02*

